<svg width="32" height="32" viewBox="0 0 32 32" fill="none" xmlns="http://www.w3.org/2000/svg">
  <rect width="32" height="32" rx="6" fill="#0a0a0a"/>
  <circle cx="16" cy="16" r="14" fill="url(#gradient)" stroke="#00ffff" stroke-width="1"/>
  <!-- Ant body -->
  <ellipse cx="16" cy="14" rx="3" ry="4" fill="#000000"/>
  <ellipse cx="16" cy="18" rx="2.5" ry="3" fill="#000000"/>
  <!-- Ant head -->
  <circle cx="16" cy="10" r="2.5" fill="#000000"/>
  <!-- Antennae -->
  <line x1="14" y1="8" x2="13" y2="6" stroke="#000000" stroke-width="1"/>
  <line x1="18" y1="8" x2="19" y2="6" stroke="#000000" stroke-width="1"/>
  <!-- Eyes -->
  <circle cx="15" cy="9.5" r="0.8" fill="#00ffff"/>
  <circle cx="17" cy="9.5" r="0.8" fill="#00ffff"/>
  <!-- Legs -->
  <line x1="12" y1="15" x2="10" y2="17" stroke="#000000" stroke-width="1"/>
  <line x1="20" y1="15" x2="22" y2="17" stroke="#000000" stroke-width="1"/>
  <line x1="12" y1="17" x2="10" y2="19" stroke="#000000" stroke-width="1"/>
  <line x1="20" y1="17" x2="22" y2="19" stroke="#000000" stroke-width="1"/>
  <line x1="12" y1="19" x2="10" y2="21" stroke="#000000" stroke-width="1"/>
  <line x1="20" y1="19" x2="22" y2="21" stroke="#000000" stroke-width="1"/>
  <!-- Circuit pattern -->
  <rect x="4" y="4" width="2" height="1" fill="#00ffff" opacity="0.6"/>
  <rect x="7" y="4" width="1" height="1" fill="#00ffff" opacity="0.6"/>
  <rect x="9" y="4" width="2" height="1" fill="#00ffff" opacity="0.6"/>
  <rect x="4" y="6" width="1" height="1" fill="#00ffff" opacity="0.6"/>
  <rect x="6" y="6" width="3" height="1" fill="#00ffff" opacity="0.6"/>
  <rect x="10" y="6" width="1" height="1" fill="#00ffff" opacity="0.6"/>
  <rect x="12" y="6" width="2" height="1" fill="#00ffff" opacity="0.6"/>
  <rect x="15" y="6" width="1" height="1" fill="#00ffff" opacity="0.6"/>
  <rect x="17" y="6" width="2" height="1" fill="#00ffff" opacity="0.6"/>
  <rect x="20" y="6" width="1" height="1" fill="#00ffff" opacity="0.6"/>
  <rect x="22" y="6" width="2" height="1" fill="#00ffff" opacity="0.6"/>
  <rect x="25" y="6" width="1" height="1" fill="#00ffff" opacity="0.6"/>
  <rect x="27" y="6" width="1" height="1" fill="#00ffff" opacity="0.6"/>
  <!-- Text "Kant" -->
  <text x="16" y="26" text-anchor="middle" fill="#00ffff" font-family="Arial, sans-serif" font-size="4" font-weight="bold">Kant</text>
  <defs>
    <linearGradient id="gradient" x1="0" y1="0" x2="32" y2="32" gradientUnits="userSpaceOnUse">
      <stop stop-color="#001a1a"/>
      <stop offset="1" stop-color="#003333"/>
    </linearGradient>
  </defs>
</svg>